<svg xmlns="http://www.w3.org/2000/svg" width="22.456" height="18.446" viewBox="0 0 22.456 18.446">
  <g id="Upload" transform="translate(0.4 0.4)">
    <path id="cloud-upload" d="M13.427,13.823,10.82,16.43l-.6-.6,3.609-3.609,3.609,3.609-.6.6-2.607-2.607v8.823h-.8V13.823Zm-1.84,4.01H7.013A3.208,3.208,0,0,1,6.289,11.5h0a4.814,4.814,0,0,1,9.272-2.482,3.61,3.61,0,0,1,5.874,2.5h0a3.208,3.208,0,0,1-.792,6.318H16.069v.8h4.577a4.012,4.012,0,0,0,1.51-7.728h0A4.415,4.415,0,0,0,15.909,7.85a5.615,5.615,0,0,0-10.5,2.765q0,.166.01.33h0A4.011,4.011,0,0,0,7.01,18.635h4.577v-.8Z" transform="translate(-3 -5)" fill="#ff5f5f" stroke="#ff5f5f" stroke-width="0.8" fill-rule="evenodd"/>
  </g>
</svg>
